PathFileType	4	(X/Y/Z)	c:/Users/goper/Files/vsCode/490R/osim_files/C11/C11_SSWS_01.trc
DataRate	CameraRate	NumFrames	NumMarkers	Units                	OrigDataRate	OrigDataStartFrame	OrigNumFrames
120.00	120.00	4	36	mm	120.0	849	1131
                Frame#	Time	LPSI			LASI			LTH1			LTH2			LTH3			LTH4			LLFE			LMFE			LSH1			LSH2			LSH3			LSH4			LLMA			LMMA			LCAL			LMTP			LTOE			LMTP			RPSI			RASI			RTH1			RTH2			RTH3			RTH4			RLFE			RMFE			RSH1			RSH2			RSH3			RSH4			RLMA			RMMA			RCAL			RMTP			RTOE			RMTP		
		X1	Y1	Z1	X2	Y2	Z2	X3	Y3	Z3	X4	Y4	Z4	X5	Y5	Z5	X6	Y6	Z6	X7	Y7	Z7	X8	Y8	Z8	X9	Y9	Z9	X10	Y10	Z10	X11	Y11	Z11	X12	Y12	Z12	X13	Y13	Z13	X14	Y14	Z14	X15	Y15	Z15	X16	Y16	Z16	X17	Y17	Z17	X18	Y18	Z18	X19	Y19	Z19	X20	Y20	Z20	X21	Y21	Z21	X22	Y22	Z22	X23	Y23	Z23	X24	Y24	Z24	X25	Y25	Z25	X26	Y26	Z26	X27	Y27	Z27	X28	Y28	Z28	X29	Y29	Z29	X30	Y30	Z30	X31	Y31	Z31	X32	Y32	Z32	X33	Y33	Z33	X34	Y34	Z34	X35	Y35	Z35	X36	Y36	Z36

849	7.06667	-3051.65039	967.85773	241.15477	-3229.67920	975.33948	311.20929	-3062.41309	598.32263	343.66840	-3060.96997	551.03943	344.46393	-3119.80347	585.93549	359.71582	-3108.94409	541.76837	355.04938	-3061.46362	479.99915	347.18298	-3078.56982	469.14352	239.36513	-2966.85840	414.96494	360.50949	-2940.74365	377.03107	358.39169	-3015.33374	378.35553	365.13071	-2983.59863	344.20868	361.22653	-2807.57324	135.76457	304.68115	-2845.26343	141.03120	212.98349	-2744.83569	115.78791	247.39011	-2896.29883	49.24053	340.65576	-2971.19995	59.67247	277.60281	-2936.25513	51.41805	229.39020	-3053.98682	979.49323	159.48242	-3219.60791	967.27466	81.26217	-3271.42603	616.49927	39.67780	-3293.08105	579.55908	43.03877	-3327.78589	643.93610	50.60790	-3340.94507	603.37256	52.43092	-3346.66479	517.25433	60.10501	-3325.68726	487.08582	167.93976	-3312.12598	392.76624	43.88261	-3331.53223	350.72217	48.64900	-3373.68433	409.63937	48.92278	-3383.53857	363.77512	48.48532	-3424.71924	103.49562	89.97465	-3457.95312	121.99634	185.15289	-3368.21460	65.66305	148.66974	-3586.70166	79.24511	153.23686	-3584.34497	90.44488	101.17711	-3543.63013	57.09535	49.68878
850	7.07500	-3061.69897	967.67896	239.91034	-3240.56738	974.93103	309.96286	-3076.65723	596.24146	341.67834	-3075.62817	548.97046	342.38171	-3134.11963	584.43140	357.82471	-3123.74878	540.17944	353.01755	-3076.45703	478.85843	345.20947	-3093.67212	467.43155	237.37619	-2980.51001	416.83170	359.02319	-2953.07349	379.65430	357.18835	-3027.72803	378.72937	363.85641	-2995.27979	345.78412	360.27774	-2813.04199	141.59071	305.05417	-2851.28955	145.92992	213.33063	-2749.63745	124.74241	247.69702	-2897.61426	50.87773	340.55753	-2971.95557	59.71609	277.56589	-2937.82764	51.92041	229.43385	-3065.44263	980.18799	159.65721	-3229.94312	968.17047	79.92157	-3282.80225	617.98206	38.94108	-3304.14844	581.15253	42.46056	-3339.29053	645.38165	50.41784	-3352.09375	604.70251	52.41441	-3357.88770	518.06421	59.90849	-3334.93384	487.63013	167.11702	-3321.90747	394.41168	42.32423	-3340.56958	352.02359	47.16164	-3383.78296	410.20312	48.94223	-3392.73315	364.16086	48.42338	-3427.29004	104.55343	89.20660	-3459.64722	120.06292	185.00400	-3369.27612	66.39079	148.56548	-3588.36304	75.11296	153.21611	-3586.27612	86.34220	101.10679	-3544.62573	54.85567	49.01303
851	7.08333	-3072.58691	967.43958	238.97647	-3251.40698	974.75305	308.48734	-3091.57349	594.03888	339.89197	-3091.08203	546.76666	340.68842	-3149.12134	582.88098	355.97375	-3140.75562	538.54114	350.96399	-3092.40625	477.47357	343.61661	-3109.39355	465.57971	235.65237	-2995.72339	418.69733	357.50024	-2967.48047	382.27014	355.95599	-3041.37378	378.72549	362.65280	-3008.01294	346.90607	359.42148	-2819.52124	147.74951	305.48801	-2857.14429	151.11829	213.93718	-2755.34229	134.57779	247.93460	-2898.91528	52.64344	340.51755	-2973.17578	59.97723	277.72873	-2939.44678	52.40985	229.36049	-3074.69727	979.80798	157.31488	-3240.19580	969.12256	78.44586	-3293.73169	619.04504	37.99868	-3314.78687	582.21613	41.76560	-3350.16235	646.49023	49.80584	-3360.85815	604.61182	53.24458	-3368.44727	518.61871	59.70879	-3343.90015	488.10645	166.25331	-3331.44531	395.88641	40.83527	-3349.34937	353.17081	45.80493	-3393.47241	410.55832	49.05798	-3401.45874	364.35803	48.50010	-3428.94287	106.25082	89.17191	-3460.70703	118.43356	185.65268	-3370.00098	66.83987	148.54552	-3589.61450	71.49249	154.31779	-3587.85400	83.00124	102.47447	-3544.70459	53.04963	49.67245
852	7.09167	-3082.92065	967.28888	237.87225	-3261.98828	974.73547	306.74252	-3106.85620	591.87286	338.27377	-3107.26245	544.66168	339.23346	-3164.72461	581.26532	354.34366	-3157.06030	536.85052	349.45624	-3109.08398	476.05240	342.16254	-3125.99780	463.62549	234.19389	-3011.33081	420.09146	356.96689	-2982.40259	384.56116	355.32349	-3056.17188	378.81427	361.86539	-3020.32739	347.61362	356.80606	-2826.41504	154.80147	306.69318	-2865.10400	156.80527	214.43533	-2762.27905	145.12674	248.18520	-2901.00781	55.17665	340.30606	-2974.56860	60.48732	278.07071	-2940.76343	52.71052	229.22697	-3086.03784	980.70471	157.48920	-3250.31958	970.09387	76.98096	-3303.96704	619.80829	37.00867	-3324.95605	583.07300	41.09143	-3360.39478	647.24475	48.65353	-3370.49121	605.10834	52.99187	-3378.57617	519.31396	59.65765	-3352.70312	488.73190	165.75407	-3340.12476	397.35904	39.31338	-3357.13623	354.27579	44.16517	-3402.75391	410.79239	49.26305	-3409.83105	364.45596	48.71103	-3429.77930	107.44599	90.28278	-3461.50366	116.84187	186.93138	-3366.63892	67.72781	148.22725	-3590.74194	68.27905	156.06526	-3589.29761	80.38691	104.35924	-3545.51099	52.91700	50.40314
